<?xml version="1.0" standalone="no"?>
<!DOCTYPE svg PUBLIC "-//W3C//DTD SVG 1.1//EN" "http://www.w3.org/Graphics/SVG/1.1/DTD/svg11.dtd">
<svg xmlns="http://www.w3.org/2000/svg" viewBox="0 0 16 16">
  <path fill="#000" d="M15.4926,10.828A3.4338,3.4338,0,0,0,16,9.0662c0-2.4656-1.2795-3.19-1.2795-3.19a2.6857,2.6857,0,0,0,.9293-1.63C15.65-.0717,0-1.7711,0,7.5061A6.5716,6.5716,0,0,0,1.293,10.81c-.0757.0146-.1544.0289-.238.0427a1.62,1.62,0,0,0,0,.5263,1.08,1.08,0,0,1,.3524.1783c.3121.2325.2186,1.7221.9728,2.7267a2.4521,2.4521,0,0,0,1.9763.9554,3.0034,3.0034,0,0,0,2.8824-1.607,3.3044,3.3044,0,0,0,.5848-1.7088s-.465-.6709.52-.6709.52.6709.52.6709a3.3044,3.3044,0,0,0,.5848,1.7088,3.0034,3.0034,0,0,0,2.8824,1.607,2.4521,2.4521,0,0,0,1.9763-.9554c.7542-1.0046.6607-2.4942.9728-2.7267a1.08,1.08,0,0,1,.3524-.1783,1.62,1.62,0,0,0,0-.5263Q15.5606,10.84,15.4926,10.828ZM4.449,14.8762c-1.8281,0-2.3128-1.6068-2.3128-2.7957s1.0279-1.4616,2.322-1.4616c1.6291,0,2.7137.2847,2.7137,1.4736A2.69,2.69,0,0,1,4.449,14.8762ZM9.3927,10.783c-.2383.0607-.5181-.11-1.0489-.11s-.8106.1711-1.0489.11A4.5868,4.5868,0,0,0,4.486,10.19a6.47,6.47,0,0,0-2.4528.441c.1807-2.0689.6929-3.7806,1.4047-4.42,2.031-1.8242,7.781-1.8242,9.812,0,.7118.6394,1.224,2.351,1.4047,4.42a6.47,6.47,0,0,0-2.4529-.441A4.5868,4.5868,0,0,0,9.3927,10.783Zm2.846,4.0932a2.69,2.69,0,0,1-2.7229-2.7837c0-1.189,1.0846-1.4736,2.7137-1.4736,1.2941,0,2.322.2726,2.322,1.4616S14.0668,14.8762,12.2387,14.8762Z"/>
</svg>
