<svg xmlns="http://www.w3.org/2000/svg" width="260" height="360" viewBox="0 0 260 360">
  <g fill="none" fill-rule="evenodd">
    <path fill="#1E1202" d="M31.5904,176.2095 C31.5904,176.2095 0.0004,139.6315 0.0004,108.6625 C0.0004,-40.7935 252.1184,-13.4155 252.1184,56.1505 C252.1184,69.6205 237.1474,82.4065 237.1474,82.4065 C237.1474,82.4065 257.7594,94.0765 257.7594,133.7965 C257.7594,159.6035 238.2714,176.2095 238.2714,176.2095"/>
    <path fill="#FFE6E1" d="M237.0714,175.2984 L237.0674,175.3434 C235.7324,134.9024 226.7534,99.7364 213.4554,87.7924 C180.7364,58.4044 88.1044,58.4044 55.3844,87.7924 C42.0854,99.7384 33.1054,134.9124 31.7724,175.3614 L31.7674,175.2984 C-11.9906,146.5134 16.7194,256.0244 37.0224,243.6864 L37.0164,243.6094 C43.3634,275.8204 55.5974,305.2104 75.3724,322.9724 C97.4844,342.8324 96.8594,359.9994 134.4204,359.9994 C171.9804,359.9994 171.3564,342.8324 193.4674,322.9724 C213.2394,305.2134 225.4724,275.8304 231.8214,243.6244 L231.8164,243.6864 C252.1184,256.0244 280.8294,146.5134 237.0714,175.2984"/>
    <path fill="#000" d="M197.1656,227.395 C162.5586,227.395 153.2996,197.233 153.2996,182.549 C153.2996,163.396 170.7736,158.81 197.0176,158.81 C217.8646,158.81 234.4246,163.202 234.4246,182.355 C234.4246,201.509 226.6166,227.395 197.1656,227.395 M71.6726,227.395 C42.2216,227.395 34.4136,201.509 34.4136,182.355 C34.4136,163.202 50.9736,158.81 71.8206,158.81 C98.0646,158.81 115.5386,163.396 115.5386,182.549 C115.5386,197.233 106.2796,227.395 71.6726,227.395 M251.8426,162.57 C226.5926,158.392 225.0786,151.893 196.5686,151.893 C160.5346,151.893 156.9596,160.017 151.3156,161.454 C147.4776,162.431 142.9706,159.675 134.4186,159.675 C125.8686,159.675 121.3606,162.431 117.5216,161.454 C111.8786,160.017 108.3046,151.893 72.2696,151.893 C43.7606,151.893 42.2456,158.392 16.9956,162.57 C16.5296,162.647 16.5376,170.59 16.9956,171.048 C17.4746,171.527 18.8456,171.07 22.6736,173.921 C27.7016,177.666 26.1956,201.664 38.3446,217.848 C47.3516,229.845 60.6406,233.24 70.1836,233.24 C82.7026,233.24 103.2246,231.436 116.6186,207.351 C127.0906,188.52 126.0396,179.822 126.0396,179.822 C126.0396,179.822 118.5486,169.013 134.4186,169.013 C150.2906,169.013 142.7996,179.822 142.7996,179.822 C142.7996,179.822 141.7486,188.52 152.2196,207.351 C165.6136,231.436 186.1366,233.24 198.6556,233.24 C208.1986,233.24 221.4866,229.845 230.4936,217.848 C242.6436,201.664 241.1376,177.666 246.1656,173.921 C249.9926,171.07 251.3636,171.527 251.8426,171.048 C252.3006,170.59 252.3086,162.647 251.8426,162.57"/>
  </g>
</svg>
